<svg id="visual" viewBox="0 0 960 540" xmlns="http://www.w3.org/2000/svg"
     xmlns:xlink="http://www.w3.org/1999/xlink" version="1.1">
  <path
    d="M0 109L87 174L175 104L262 239L349 212L436 87L524 179L611 195L698 131L785 195L873 174L960 125L960 0L873 0L785 0L698 0L611 0L524 0L436 0L349 0L262 0L175 0L87 0L0 0Z"
    fill="#0F0F0F0" opacity="0.1" stroke="none"></path>
  <path
    d="M0 336L87 271L175 309L262 325L349 336L436 287L524 336L611 293L698 379L785 282L873 266L960 320L960 123L873 172L785 193L698 129L611 193L524 177L436 85L349 210L262 237L175 102L87 172L0 107Z"
    fill="#0F0F0F0" opacity="0.5" stroke="none"></path>
  <path
    d="M0 368L87 325L175 401L262 395L349 401L436 347L524 422L611 363L698 411L785 363L873 352L960 352L960 318L873 264L785 280L698 377L611 291L524 334L436 285L349 334L262 323L175 307L87 269L0 334Z"
    fill="#0F0F0F0" opacity="0.4" stroke="none"></path>
  <path
    d="M0 428L87 460L175 498L262 471L349 455L436 428L524 498L611 460L698 465L785 455L873 444L960 487L960 350L873 350L785 361L698 409L611 361L524 420L436 345L349 399L262 393L175 399L87 323L0 366Z"
    fill="#0F0F0F0" opacity="0.2" stroke="none"></path>
  <path
    d="M0 541L87 541L175 541L262 541L349 541L436 541L524 541L611 541L698 541L785 541L873 541L960 541L960 485L873 442L785 453L698 463L611 458L524 496L436 426L349 453L262 469L175 496L87 458L0 426Z"
    fill="#0F0F0F0" opacity="0.3" stroke="none"></path>
</svg>
