<svg width="400" height="488" viewBox="0 0 400 488" fill="none" xmlns="http://www.w3.org/2000/svg">
  <path d="M193.5 91L96 188.5V488L193.5 390.5V91Z" fill="#014859"/>
  <path d="M96 189L48 237.627V387L96 338.373V189Z" fill="#01ABCA"/>
  <path d="M48 238L0 286.627V436L48 387.373V238Z" fill="#01ABCA"/>
  <path d="M102 0L193 91H259C278.5 91 307.5 109 307.5 151.75C307.5 194.5 278.5 212.5 259 212.5H193V302.5H259C259 302.5 325.861 296.573 367.5 247.574C386.329 225.418 400 194.455 400 151.25C400 12.5 259 0 259 0H102Z" fill="#068EB2"/>
  <path d="M193 302.5H259C259 302.5 307.657 298.186 347.805 266.5L300.388 184.372C290.558 203.871 272.502 212.5 259 212.5H193V302.5Z" fill="#00495C"/>
  <path d="M193 212.5V302.5H229V212.5H193Z" fill="#013849"/>
</svg>
