<svg width="829" height="641" viewBox="0 0 829 641" fill="none" xmlns="http://www.w3.org/2000/svg">
  <path d="M69 390.5H42V504.332L98 472V423.5H69V390.5Z" fill="#7D1DA8"/>
  <path d="M27 390.5H0V504.332L56 472V423.5H27V390.5Z" fill="#631686"/>
  <path d="M828.796 235.5L420.898 0L13 235.5L144.5 311.422L397.5 165.352L460.5 201.725L207.5 347.795L420.898 471L828.796 235.5Z" fill="#631686"/>
  <path d="M195.731 511L420.898 641L700.5 479.572V335.5L420.898 496.928L140.43 335V476.5V479.072L195.731 511Z" fill="#631686"/>
  <path d="M140.43 476.5V335L195.731 366.928V436.115L271 479.572V554.456L195.731 511L140.43 479.072V476.5Z" fill="#7D1DA8"/>
  <path d="M828.796 235.5L420.898 0L346.102 43.1834L699.102 246.988L754 278.683L828.796 235.5Z" fill="#7D1DA8"/>
  <path d="M346.102 427.5L754 192L828.796 235.183L475.796 438.988L420.898 470.683L346.102 427.5Z" fill="#7D1DA8"/>
  <path d="M69.5 276.666L41.5 260.5V379.5H69.5V276.666Z" fill="#7D1DA8"/>
  <path d="M98 318.166L70 302V421H98V318.166Z" fill="#631686"/>
</svg>
