<svg opacity="90%" viewBox="0 0 150 150" fill="none" xmlns="http://www.w3.org/2000/svg">
  <path fill-rule="evenodd" clip-rule="evenodd" d="M105 30H135C143.284 30 150 36.7157 150 45V105C150 113.284 143.284 120 135 120H105V134.559C105 142.994 98.3832 150 90 150H15C6.61684 150 0 142.994 0 134.559V15.4412C0 7.00607 6.61684 0 15 0H90C98.3832 0 105 7.00607 105 15.4412V30Z" fill="#FBB945"/>
  <path d="M135 30H105L0 134.559C0 142.994 6.61684 150 15 150H90C98.3832 150 105 142.994 105 134.559V120H135C143.284 120 150 113.284 150 105V45C150 36.7157 143.284 30 135 30Z" fill="#F25F5C"/>
  <path fill-rule="evenodd" clip-rule="evenodd" d="M135 67.5H105V105H135V67.5ZM22.5 127.5V112.5H37.5V127.5H22.5ZM45 127.5V112.5H60V127.5H45ZM67.5 127.5V112.5H82.5V127.5H67.5ZM22.5 105V90H37.5V105H22.5ZM45 105V90H60V105H45ZM67.5 105V90H82.5V105H67.5ZM82.5 22.5V82.5H22.5V22.5H82.5ZM37.5 37.5V67.5H67.5V37.5H37.5ZM135 52.5V45H105V52.5H135Z" fill="white"/>
</svg>
