<svg width="320" height="325" viewBox="0 0 320 325" fill="none" xmlns="http://www.w3.org/2000/svg">
  <path d="M0 0L97.7181 97.7686H168.591C189.53 97.7686 220.671 117.107 220.671 163.037C220.671 208.967 189.53 228.306 168.591 228.306H97.7181V325H168.591C168.591 325 240.388 318.632 285.101 265.989C305.319 242.184 320 208.918 320 162.5C320 13.4298 168.591 0 168.591 0H0Z" fill="#00FFA6"/>
  <path d="M97.7181 325H168.591C168.591 325 220.84 320.366 263.952 286.322L213.035 198.085C202.478 219.035 183.089 228.306 168.591 228.306H97.7181V325Z" fill="#00462D"/>
  <path d="M97.7181 228.306V325H136.376V228.306H97.7181Z" fill="#00A46B"/>
  <path d="M76.3267 159C75.4067 159 74.4867 158.62 73.7967 157.936L59.46 143.722C58.8467 143.114 58.8467 142.202 59.46 141.594L62.2967 138.781C62.91 138.173 63.83 138.173 64.4433 138.781L76.3267 150.487L99.5567 127.456C100.17 126.848 101.09 126.848 101.703 127.456L104.54 130.268C105.153 130.876 105.153 131.789 104.54 132.397L78.78 157.936C78.09 158.62 77.2467 159 76.3267 159Z" fill="#00FFA6"/>
  <path d="M84.3267 159C83.4067 159 82.4867 158.62 81.7967 157.936L67.46 143.722C66.8467 143.114 66.8467 142.202 67.46 141.594L70.2967 138.781C70.91 138.173 71.83 138.173 72.4433 138.781L84.3267 150.487L107.557 127.456C108.17 126.848 109.09 126.848 109.703 127.456L112.54 130.268C113.153 130.876 113.153 131.789 112.54 132.397L86.78 157.936C86.09 158.62 85.2467 159 84.3267 159Z" fill="#00A46B"/>
  <path d="M76.3267 206C75.4067 206 74.4867 205.62 73.7967 204.936L59.46 190.722C58.8467 190.114 58.8467 189.202 59.46 188.594L62.2967 185.781C62.91 185.173 63.83 185.173 64.4433 185.781L76.3267 197.487L99.5567 174.456C100.17 173.848 101.09 173.848 101.703 174.456L104.54 177.268C105.153 177.876 105.153 178.789 104.54 179.397L78.78 204.936C78.09 205.62 77.2467 206 76.3267 206Z" fill="#00FFA6"/>
  <path d="M84.3267 206C83.4067 206 82.4867 205.62 81.7967 204.936L67.46 190.722C66.8467 190.114 66.8467 189.202 67.46 188.594L70.2967 185.781C70.91 185.173 71.83 185.173 72.4433 185.781L84.3267 197.487L107.557 174.456C108.17 173.848 109.09 173.848 109.703 174.456L112.54 177.268C113.153 177.876 113.153 178.789 112.54 179.397L86.78 204.936C86.09 205.62 85.2467 206 84.3267 206Z" fill="#00A46B"/>
  <path d="M126 143H174" stroke="#00FFA6" stroke-width="15"/>
  <path d="M126 136H174" stroke="#00A46B" stroke-width="15"/>
  <path d="M126 196H174" stroke="#00FFA6" stroke-width="15"/>
  <path d="M126 190H174" stroke="#00A46B" stroke-width="15"/>
  <path d="M33 198V83" stroke="#00FFA6" stroke-width="15"/>
  <path d="M33.5 231L33.5 212" stroke="#00FFA6" stroke-width="15"/>
  <path d="M33.5 261L33.5 242" stroke="#00FFA6" stroke-width="15"/>
  <path d="M33.5 291L33.5 272" stroke="#00FFA6" stroke-width="15"/>
</svg>
